<svg xmlns="http://www.w3.org/2000/svg" width="256" height="256"><path fill="#1976D2" fill-opacity=".016" fill-rule="evenodd" d="M0 128.004v128.004l128.25-.254 128.25-.254.254-127.75L257.008 0H0v128.004m.485.496c0 70.4.119 99.053.265 63.672.146-35.38.146-92.98 0-128C.604 29.153.485 58.1.485 128.5"/><path fill="#1976D2" fill-opacity=".083" fill-rule="evenodd" d="M99.699 48.619 76 63.277v19.897c0 18.651.11 19.836 1.75 18.928.963-.532 10.525-6.344 21.25-12.915l19.5-11.947.257 72.399.256 72.399 22.744-.269 22.743-.269v-187l-20.551-.27-20.551-.269-23.699 14.658"/><path fill="#1976D2" fill-opacity=".266" fill-rule="evenodd" d="M99 49.339 76.5 63.5l-.272 19.365c-.226 16.113-.041 19.277 1.105 18.837.757-.29 10.274-5.967 21.148-12.615C109.355 82.439 118.421 77 118.626 77c.206 0 .374 32.4.374 72v72h45V35l-21.25.089-21.25.09L99 49.339"/><path fill="#1976D2" fill-opacity=".23" fill-rule="evenodd" d="M99.759 49.317 77.019 63.5l-.01 19.172L77 101.843l20.247-12.421C108.383 82.59 118.058 77 118.747 77c.992 0 1.253 14.978 1.253 72v72h44V35l-20.75.067-20.75.066-22.741 14.184"/></svg>